<svg version="1.1" xmlns="http://www.w3.org/2000/svg" xmlns:xlink="http://www.w3.org/1999/xlink" width="187.08025" height="83.03333" viewBox="0,0,187.08025,83.03333"><g transform="translate(-146.455,-138.32667)"><g data-paper-data="{&quot;isPaintingLayer&quot;:true}" fill="#be00ff" fill-rule="nonzero" stroke="none" stroke-width="1" stroke-linecap="butt" stroke-linejoin="miter" stroke-miterlimit="10" stroke-dasharray="" stroke-dashoffset="0" style="mix-blend-mode: normal"><path d="M234.215,195.60667l-16.76,-47.1h-0.89c0,0 0.57,2.26 1,3.67c0.3784,1.81194 0.61247,3.65104 0.7,5.5c0,0 -0.14,13.38 -15.94,21c-14.87,7.15 -32.87,6.35 -32.87,6.35h-18.06l7.62,-32.87h18.2l-5.22,22.71c0,0 26.78,1.25 27.65,-16.22c0.56,-11.32 -21.45,-10.16 -21.45,-10.16h-18.2l2.54,-10.16h68.57l9.88,30.62l23.56,-30.62h39.78c0,0 12.13,0.42 21.45,5.95c4.82288,2.73137 7.79144,7.85748 7.76,13.4c0,0 -0.14,13.38 -15.94,21c-14.88,7.15 -32.88,6.35 -32.88,6.35h-18.06l7.6,-32.87h18.2l-5.2,22.71c0,0 26.78,1.25 27.65,-16.22c0.55,-11.32 -21.45,-10.16 -21.45,-10.16h-18.19z"/><path d="M323.095,208.66c0,7 -39.54,12.7 -88.32,12.7c-48.78,0 -88.32,-5.7 -88.32,-12.7c0,-7 39.54,-12.72 88.32,-12.72c48.78,0 88.32,5.72 88.32,12.72zM199.885,202.39h-5.22l-4.48,8l-4.46,-8h-5.21l7.76,13.19h3.72zM212.925,202.39h-4.8v13.19h4.8zM229.915,215.58c5.12,0 9.39,-2.9 9.39,-6.6c0,-3.7 -4.23,-6.59 -9.38,-6.59h-6.8v13.19h6.8zM259.085,202.39h-10.5v13.17h10.5v-2.9h-5.7v-2.26h5.41v-2.9h-5.41v-2.2h5.7zM278.365,216.02c5.92,0 10.21,-3.01 10.22,-7.28c0,-3.99 -4.89,-6.78 -10.21,-6.78c-5.32,0 -10.21,2.78 -10.21,6.78c0,4.28 4.28,7.28 10.21,7.28z"/><path d="M278.365,205.28c2.86,0 5.21,1.66 5.21,3.48c0,2.27 -2.35,3.93 -5.21,3.93c-2.86,0 -5.22,-1.66 -5.22,-3.93c0,-1.82 2.35,-3.48 5.22,-3.48z"/><path d="M234.305,208.97c0,2.57 -2.45,3.69 -5.32,3.69h-1.08v-7.36h1.13c3.09,0 5.27,1.36 5.27,3.67z"/></g></g></svg>