<svg version="1.1" xmlns="http://www.w3.org/2000/svg" xmlns:xlink="http://www.w3.org/1999/xlink" width="97.87358" height="98.34187" viewBox="0,0,97.87358,98.34187"><g transform="translate(-271.06321,-131.9998)"><g stroke-miterlimit="10"><path d="M271.06321,181.40488c0,-27.02704 21.90974,-48.93679 48.93679,-48.93679c27.02704,0 48.93679,21.90975 48.93679,48.93679c0,27.02704 -21.90974,48.93679 -48.93679,48.93679c-27.02704,0 -48.93679,-21.90975 -48.93679,-48.93679z" fill-opacity="0.01176" fill="#ffffff" fill-rule="nonzero" stroke="#ff8d90" stroke-width="0"/><path d="M368.81339,181.2168c0,21.756 -13.993,40.171 -33.405,46.691c-2.426,0.489 -3.316,-1.06 -3.316,-2.364c0,-1.629 0.08,-6.926 0.08,-13.526c0,-4.645 -1.536,-7.578 -3.316,-9.126c10.92,-1.223 22.324,-5.378 22.324,-24.283c0,-5.378 -1.86,-9.778 -5.015,-13.2c0.485,-1.222 2.185,-6.275 -0.485,-13.038c0,0 -4.125,-1.304 -13.427,5.052c-3.883,-1.059 -8.088,-1.63 -12.213,-1.63c-4.12525,0.00462 -8.23191,0.55266 -12.214,1.63c-9.301,-6.356 -13.426,-5.052 -13.426,-5.052c-2.67,6.763 -0.971,11.816 -0.486,13.038c-3.074,3.422 -5.014,7.822 -5.014,13.2c0,18.905 11.404,23.142 22.243,24.283c-1.375,1.222 -2.67,3.422 -3.074,6.6c-2.831,1.304 -9.868,3.422 -14.235,-4.074c0,0 -2.589,-4.726 -7.523,-5.052c0,0 -4.772,0 -0.324,3.015c0,0 3.236,1.466 5.42,7.17c0,0 2.83,8.801 16.42,5.867c0,4.075 0.08,7.986 0.08,9.127c0,1.303 -0.889,2.852 -3.316,2.362c-19.412,-6.518 -33.405,-24.934 -33.405,-46.69c0,-27.217 21.839,-49.217 48.854,-49.217c26.934,0 48.853,22 48.773,49.217z" fill="#24292f" fill-rule="evenodd" stroke="none" stroke-width="1"/></g></g></svg>